<?xml version="1.0" standalone="no"?>
<!DOCTYPE svg PUBLIC "-//W3C//DTD SVG 20010904//EN"
 "http://www.w3.org/TR/2001/REC-SVG-20010904/DTD/svg10.dtd">
<svg version="1.0" xmlns="http://www.w3.org/2000/svg"
 width="143.000000pt" height="143.000000pt" viewBox="0 0 143.000000 143.000000"
 preserveAspectRatio="xMidYMid meet">
<metadata>
Created by potrace 1.11, written by Peter Selinger 2001-2013
</metadata>
<g transform="translate(0.000000,143.000000) scale(0.100000,-0.100000)"
fill="#000000" stroke="none">
<path d="M43 1377 c-3 -6 -6 -831 -3 -1269 l0 -68 670 0 670 0 0 525 0 525
-144 148 -145 147 -521 0 c-287 0 -524 -3 -527 -8z m1027 -37 c0 -18 -8 -20
-102 -22 l-102 -3 -2 -60 c-4 -106 -7 -102 104 -102 l97 1 5 -39 c5 -36 8 -40
33 -38 31 2 33 -4 11 -35 -15 -21 -14 -26 9 -70 l25 -47 58 -3 59 -3 27 49
c25 44 26 51 13 68 -23 30 -18 41 18 40 l32 -1 0 -505 0 -505 -645 0 -645 0
-2 648 -2 647 505 0 c494 0 504 0 504 -20z m93 -62 c33 -35 85 -89 116 -120
l55 -58 -120 0 -120 0 1 120 c0 66 2 120 4 120 2 0 31 -28 64 -62z m-93 -40
l0 -68 -95 0 -95 0 0 64 c0 35 5 66 10 68 6 2 48 3 95 3 l85 0 0 -67z m213
-195 c18 -31 18 -32 -7 -71 -22 -36 -28 -39 -67 -38 -37 1 -46 6 -66 35 -29
43 -29 56 0 85 18 18 33 22 72 21 44 -1 51 -4 68 -32z"/>
<path d="M102 1238 l3 -83 43 -2 c23 0 46 -2 51 -2 6 -1 12 -18 14 -38 l4 -38
1 41 2 40 60 -3 60 -3 0 85 0 85 -120 0 -121 0 3 -82z m218 63 c3 -1 6 -30 5
-66 l0 -65 -102 0 -103 0 0 68 0 67 97 -2 c54 0 100 -2 103 -2z"/>
<path d="M358 1308 c-3 -11 -3 -86 1 -140 1 -14 11 -16 59 -15 52 2 57 0 60
-20 3 -21 -4 -27 -33 -25 -11 1 -65 -82 -65 -99 0 -6 13 -29 29 -53 29 -41 31
-42 82 -41 29 1 54 6 56 11 2 5 14 27 27 48 l23 39 -29 46 c-20 32 -35 46 -51
46 -15 0 -23 7 -25 23 -4 23 -3 24 63 26 l40 1 3 83 3 82 -120 0 c-86 0 -120
-3 -123 -12z m222 -70 l0 -68 -105 0 -105 0 0 63 c0 35 2 66 4 68 2 2 50 4
105 4 l101 0 0 -67z m-23 -188 l21 -40 -21 -40 c-21 -40 -23 -40 -70 -38 -45
3 -51 6 -72 43 l-23 40 24 38 c22 34 28 37 72 37 45 0 48 -2 69 -40z"/>
<path d="M612 1238 l3 -83 55 0 c52 0 75 -9 64 -27 -3 -4 -20 -8 -39 -8 l-34
0 -3 -57 c-2 -32 -5 -56 -8 -54 -12 11 -52 -23 -71 -60 l-21 -41 24 -45 c16
-32 31 -46 51 -50 l27 -5 0 -114 0 -114 -85 0 -85 0 0 65 c0 64 0 65 28 65 22
0 32 9 53 48 l26 47 -27 45 c-25 44 -28 45 -81 48 l-54 3 -29 -48 -29 -48 25
-45 c18 -33 32 -46 51 -48 25 -3 26 -6 29 -70 l3 -67 90 0 90 0 3 118 c3 117
3 117 27 117 19 0 32 12 54 47 l30 48 -26 47 c-24 44 -40 55 -75 49 -5 0 -8
24 -8 54 l0 55 35 0 c32 0 40 7 36 33 -1 7 12 9 72 9 l37 0 0 84 0 84 -120 0
-121 0 3 -82z m219 63 c3 -1 5 -29 5 -63 l-1 -63 -103 -3 -102 -3 0 68 0 68
97 -2 c54 0 101 -2 104 -2z m-93 -353 l22 -41 -24 -41 c-23 -40 -27 -42 -68
-39 -73 4 -105 63 -68 126 20 34 25 37 68 37 45 0 48 -2 70 -42z m-217 -67 c8
-1 25 -19 38 -41 l22 -39 -26 -41 c-24 -38 -28 -40 -70 -38 -41 1 -47 5 -69
42 -22 38 -23 42 -8 66 29 47 42 57 70 54 15 -1 34 -2 43 -3z"/>
<path d="M990 1105 c0 -19 4 -35 8 -35 4 0 6 16 4 35 -2 19 -6 35 -8 35 -2 0
-4 -16 -4 -35z"/>
<path d="M766 1063 l-28 -48 25 -45 c25 -45 26 -45 84 -48 l58 -3 26 47 27 47
-30 49 c-29 47 -30 48 -81 48 -51 0 -53 -1 -81 -47z m120 28 c6 -1 20 -19 33
-41 l22 -39 -25 -39 c-23 -36 -28 -39 -70 -39 -43 0 -47 2 -69 41 -23 41 -23
42 -5 71 24 40 41 51 75 49 15 -1 33 -3 39 -3z"/>
<path d="M238 1088 c-8 -5 2 -8 25 -8 37 0 37 0 37 -40 0 -27 -4 -40 -12 -39
-29 3 -38 -3 -63 -46 l-27 -44 29 -51 c21 -37 34 -50 51 -50 21 0 22 -3 22
-90 l0 -90 -29 0 c-31 0 -91 -18 -92 -28 0 -4 -1 -56 -2 -116 -2 -101 -1 -110
20 -123 39 -26 199 -21 227 7 6 6 12 170 7 227 -1 14 -54 33 -93 33 l-29 0 3
92 c3 90 4 93 27 93 18 0 32 12 53 47 l29 46 -28 46 c-26 43 -38 51 -70 47 -9
-1 -13 13 -13 42 0 42 -2 45 -30 49 -16 3 -35 1 -42 -4z m141 -138 l22 -40
-22 -39 c-19 -35 -26 -40 -67 -43 -41 -3 -46 -1 -68 32 -29 42 -29 50 -3 94
19 33 25 36 68 36 45 0 49 -2 70 -40z m10 -346 c19 -4 21 -8 12 -17 -13 -13
-184 -17 -197 -4 -26 26 97 40 185 21z m-84 -48 c28 0 64 3 81 6 l31 7 -1 -94
c-1 -51 -4 -96 -8 -100 -10 -10 -151 -15 -184 -6 l-29 7 -1 97 -1 96 31 -7
c17 -3 54 -6 81 -6z"/>
<path d="M1027 1061 c3 -12 9 -21 13 -21 12 0 5 33 -8 38 -6 2 -8 -5 -5 -17z"/>
<path d="M1030 1009 c0 -6 -7 -9 -15 -5 -25 9 -43 -4 -70 -50 l-26 -45 25 -43
c25 -43 49 -61 67 -50 5 3 9 -46 9 -115 l0 -121 -84 0 -85 0 -4 28 c-4 25 -4
25 -3 -3 l1 -30 95 -5 c103 -5 122 -20 44 -33 -27 -4 -55 -14 -62 -21 -11 -11
-15 -66 -13 -188 1 -58 16 -68 104 -72 80 -4 144 10 149 32 2 9 3 63 3 120 -2
116 -2 118 -76 128 -29 4 -46 11 -46 20 0 11 18 14 78 14 43 0 80 3 82 8 3 4
-35 6 -84 4 l-90 -3 3 118 c2 96 6 118 18 119 8 1 20 2 27 2 6 1 22 22 36 46
l24 44 -26 48 c-18 33 -32 48 -44 46 -9 -2 -17 2 -17 8 0 5 -4 10 -10 10 -5 0
-10 -5 -10 -11z m69 -59 l22 -40 -22 -40 c-21 -38 -25 -40 -70 -40 -44 0 -49
3 -69 37 l-22 37 21 43 c20 42 22 43 69 43 46 0 49 -2 71 -40z m39 -445 c14
-14 -18 -20 -103 -20 -89 0 -117 6 -101 22 19 19 185 18 204 -2z m-71 -39 c36
2 68 6 72 9 5 2 8 -39 7 -92 l-1 -97 -35 -9 c-37 -10 -166 -4 -178 7 -7 7 -12
175 -5 187 1 4 19 3 40 -1 20 -5 65 -7 100 -4z"/>
<path d="M778 878 c-40 -66 -41 -71 -13 -121 20 -35 33 -47 50 -47 14 0 25 -7
28 -17 4 -17 5 -17 6 0 1 12 9 17 29 17 22 0 32 9 54 48 l26 49 -29 46 c-29
47 -30 47 -83 47 -45 0 -56 -4 -68 -22z m109 3 c7 -1 21 -18 32 -39 l20 -38
-23 -40 c-20 -36 -25 -39 -66 -39 -40 0 -46 4 -70 39 l-27 39 24 43 c22 39 26
42 61 39 20 -2 43 -3 49 -4z"/>
<path d="M1126 854 c-14 -26 -26 -48 -26 -50 0 -2 12 -24 27 -49 20 -33 34
-45 51 -45 13 0 21 -4 17 -9 -3 -5 -1 -12 5 -16 5 -3 10 1 10 9 0 11 9 16 28
16 22 0 32 9 53 48 l27 48 -27 47 -26 47 -57 0 -56 0 -26 -46z m152 -11 l23
-42 -25 -39 c-22 -36 -28 -39 -67 -38 -37 1 -45 5 -67 39 l-26 39 23 43 c22
41 24 42 69 41 44 -1 48 -3 70 -43z"/>
<path d="M1202 620 c0 -14 2 -19 5 -12 2 6 2 18 0 25 -3 6 -5 1 -5 -13z"/>
<path d="M613 540 c1 -11 5 -20 9 -20 3 0 6 9 5 20 -1 11 -5 20 -9 20 -3 0 -6
-9 -5 -20z"/>
<path d="M614 485 c0 -14 4 -25 8 -25 4 0 7 9 5 20 -5 29 -13 33 -13 5z"/>
<path d="M533 425 l-38 -11 -3 -115 c-3 -146 -5 -144 128 -144 130 0 130 0
130 134 0 58 -4 112 -8 118 -9 14 -103 34 -144 31 -15 -1 -44 -7 -65 -13z
m189 -23 c22 -22 -142 -33 -193 -13 -25 9 -21 13 26 25 30 7 157 -2 167 -12z
m8 -121 l0 -99 -32 -8 c-37 -8 -142 -7 -170 2 -16 5 -18 17 -18 99 l0 93 83
-5 c46 -3 93 0 107 5 14 6 26 11 28 11 1 1 2 -44 2 -98z"/>
</g>
</svg>
